Indiana Jones Tetralogy ( 1, 2, 3, 4)


Indiana Jones-I-Raiders Of The Lost Ark [1981]-720p-BRrip-x264-StyLishSaLH

General
Complete name                    : Indiana Jones - I - Raiders Of The Lost Ark\Indiana Jones-I-Raiders Of The Lost Ark [1981]-720p-BRrip-x264-StyLishSaLH
Format                           : MPEG-4
Format profile                   : Base Media
Codec ID                         : isom
File size                        : 499 MiB
Duration                         : 1h 55mn
Overall bit rate                 : 605 Kbps
Movie name                       : Indiana Jones-I-Raiders Of The Lost Ark [1981]-720p-BRrip-x264-StyLishSaLH
Genre                            : Adventure
Encoded date                     : UTC 2011-05-13 11:33:42
Tagged date                      : UTC 2011-05-13 11:33:42
Copyright                        : StyLishSaLH
Comment                          :Puretorrents.cc, Deemtrack.in, Sceneunderground.org,Northernwarriors.net, Silvertorrents.me & Kickasstorrents.com

Video
ID                               : 1
Format                           : AVC
Format/Info                      : Advanced Video Codec
Format profile                   : Main@L4.1
Format settings, CABAC           : Yes
Format settings, ReFrames        : 8 frames
Codec ID                         : avc1
Codec ID/Info                    : Advanced Video Coding
Duration                         : 1h 55mn
Bit rate                         : 562 Kbps
Maximum bit rate                 : 2 103 Kbps
Width                            : 1 280 pixels
Height                           : 544 pixels
Display aspect ratio             : 2.35:1
Original display aspect ratio    : 2.35:1
Frame rate mode                  : Constant
Frame rate                       : 23.976 fps
Color space                      : YUV
Chroma subsampling               : 4:2:0
Bit depth                        : 8 bits
Scan type                        : Progressive
Bits/(Pixel*Frame)               : 0.034
Stream size                      : 463 MiB (93%)
Writing library                  : x264 core 114 r1913 5fd3dce
Encoding settings                : cabac=1 / ref=8 / deblock=1:-1:-1 / analyse=0x1:0x111 / me=umh / subme=9 / psy=0 / mixed_ref=1 / me_range=16 / chroma_me=1 / trellis=2 / 8x8dct=0 / cqm=0 / deadzone=21,11 / fast_pskip=1 / chroma_qp_offset=0 / threads=2 / sliced_threads=0 / nr=0 / decimate=1 / interlaced=0 / constrained_intra=0 / bframes=3 / b_pyramid=0 / b_adapt=2 / b_bias=0 / direct=3 / weightb=1 / open_gop=0 / weightp=2 / keyint=250 / keyint_min=23 / scenecut=40 / intra_refresh=0 / rc=2pass / mbtree=0 / bitrate=562 / ratetol=1.0 / qcomp=0.60 / qpmin=0 / qpmax=69 / qpstep=4 / cplxblur=20.0 / qblur=0.5 / ip_ratio=1.40 / pb_ratio=1.30 / aq=0
Encoded date                     : UTC 2011-05-13 11:33:42
Tagged date                      : UTC 2011-05-13 11:34:23

Audio
ID                               : 2
Format                           : AAC
Format/Info                      : Advanced Audio Codec
Format profile                   : HE-AACv2 / HE-AAC / LC
Codec ID                         : 40
Duration                         : 1h 55mn
Bit rate mode                    : Variable
Bit rate                         : 39.9 Kbps
Maximum bit rate                 : 47.1 Kbps
Channel(s)                       : 2 channels / 1 channel / 1 channel
Channel positions                : Front: L R / Front: C / Front: C
Sampling rate                    : 48.0 KHz / 48.0 KHz / 24.0 KHz
Compression mode                 : Lossy
Stream size                      : 32.9 MiB (7%)
Language                         : English
Encoded date                     : UTC 2011-05-13 11:34:21
Tagged date                      : UTC 2011-05-13 11:34:23


Indiana Jones-II-Temple Of Doom [1984]-720p-BRrip-x264-StyLishSaLH

General
Complete name                    : Indiana Jones-II-Temple Of Doom [1984]-720p-BRrip-x264-StyLishSaLH
Format                           : MPEG-4
Format profile                   : Base Media
Codec ID                         : isom
File size                        : 498 MiB
Duration                         : 1h 58mn
Overall bit rate                 : 588 Kbps
Movie name                       : Indiana Jones-II-Temple Of Doom [1984]-720p-BRrip-x264-StyLishSaLH
Genre                            : Adventure
Encoded date                     : UTC 2011-05-14 03:12:53
Tagged date                      : UTC 2011-05-14 03:12:53
Copyright                        : StyLishSaLH
Comment                          :Puretorrents.cc, Deemtrack.in, Sceneunderground.org,Northernwarriors.net, Silvertorrents.me & Kickasstorrents.com

Video
ID                               : 1
Format                           : AVC
Format/Info                      : Advanced Video Codec
Format profile                   : Main@L4.1
Format settings, CABAC           : Yes
Format settings, ReFrames        : 8 frames
Codec ID                         : avc1
Codec ID/Info                    : Advanced Video Coding
Duration                         : 1h 58mn
Bit rate                         : 545 Kbps
Maximum bit rate                 : 2 374 Kbps
Width                            : 1 280 pixels
Height                           : 544 pixels
Display aspect ratio             : 2.35:1
Original display aspect ratio    : 2.35:1
Frame rate mode                  : Constant
Frame rate                       : 23.976 fps
Color space                      : YUV
Chroma subsampling               : 4:2:0
Bit depth                        : 8 bits
Scan type                        : Progressive
Bits/(Pixel*Frame)               : 0.033
Stream size                      : 462 MiB (93%)
Writing library                  : x264 core 114 r1913 5fd3dce
Encoding settings                : cabac=1 / ref=8 / deblock=1:-1:-1 / analyse=0x1:0x111 / me=umh / subme=9 / psy=0 / mixed_ref=1 / me_range=16 / chroma_me=1 / trellis=2 / 8x8dct=0 / cqm=0 / deadzone=21,11 / fast_pskip=1 / chroma_qp_offset=0 / threads=2 / sliced_threads=0 / nr=0 / decimate=1 / interlaced=0 / constrained_intra=0 / bframes=3 / b_pyramid=0 / b_adapt=2 / b_bias=0 / direct=3 / weightb=1 / open_gop=0 / weightp=2 / keyint=250 / keyint_min=23 / scenecut=40 / intra_refresh=0 / rc=2pass / mbtree=0 / bitrate=545 / ratetol=1.0 / qcomp=0.60 / qpmin=0 / qpmax=69 / qpstep=4 / cplxblur=20.0 / qblur=0.5 / ip_ratio=1.40 / pb_ratio=1.30 / aq=0
Encoded date                     : UTC 2011-05-14 03:12:53
Tagged date                      : UTC 2011-05-14 03:13:39

Audio
ID                               : 2
Format                           : AAC
Format/Info                      : Advanced Audio Codec
Format profile                   : HE-AACv2 / HE-AAC / LC
Codec ID                         : 40
Duration                         : 1h 58mn
Bit rate mode                    : Variable
Bit rate                         : 39.9 Kbps
Maximum bit rate                 : 45.4 Kbps
Channel(s)                       : 2 channels / 1 channel / 1 channel
Channel positions                : Front: L R / Front: C / Front: C
Sampling rate                    : 48.0 KHz / 48.0 KHz / 24.0 KHz
Compression mode                 : Lossy
Stream size                      : 33.8 MiB (7%)
Language                         : English
Encoded date                     : UTC 2011-05-14 03:13:37
Tagged date                      : UTC 2011-05-14 03:13:39



Indiana Jones-III-Last Crusade [1989]-720p-BRrip-x264-StyLishSaLH

General
Complete name                    : Indiana Jones-III-Last Crusade [1989]-720p-BRrip-x264-StyLishSaLH
Format                           : MPEG-4
Format profile                   : Base Media
Codec ID                         : isom
File size                        : 501 MiB
Duration                         : 2h 6mn
Overall bit rate                 : 553 Kbps
Movie name                       : Indiana Jones-III-Last Crusade [1989]-720p-BRrip-x264-StyLishSaLH
Genre                            : Adventure
Encoded date                     : UTC 2011-05-15 04:20:23
Tagged date                      : UTC 2011-05-15 04:20:23
Copyright                        : StyLishSaLH
Comment                          :Puretorrents.cc, Deemtrack.in, Sceneunderground.org,Northernwarriors.net, Silvertorrents.me & Kickasstorrents.com

Video
ID                               : 1
Format                           : AVC
Format/Info                      : Advanced Video Codec
Format profile                   : Main@L4.1
Format settings, CABAC           : Yes
Format settings, ReFrames        : 8 frames
Codec ID                         : avc1
Codec ID/Info                    : Advanced Video Coding
Duration                         : 2h 6mn
Bit rate                         : 510 Kbps
Maximum bit rate                 : 1 820 Kbps
Width                            : 1 280 pixels
Height                           : 544 pixels
Display aspect ratio             : 2.35:1
Original display aspect ratio    : 2.35:1
Frame rate mode                  : Constant
Frame rate                       : 23.976 fps
Color space                      : YUV
Chroma subsampling               : 4:2:0
Bit depth                        : 8 bits
Scan type                        : Progressive
Bits/(Pixel*Frame)               : 0.031
Stream size                      : 463 MiB (92%)
Writing library                  : x264 core 114 r1913 5fd3dce
Encoding settings                : cabac=1 / ref=8 / deblock=1:-1:-1 / analyse=0x1:0x111 / me=umh / subme=9 / psy=0 / mixed_ref=1 / me_range=16 / chroma_me=1 / trellis=2 / 8x8dct=0 / cqm=0 / deadzone=21,11 / fast_pskip=1 / chroma_qp_offset=0 / threads=2 / sliced_threads=0 / nr=0 / decimate=1 / interlaced=0 / constrained_intra=0 / bframes=3 / b_pyramid=0 / b_adapt=2 / b_bias=0 / direct=3 / weightb=1 / open_gop=0 / weightp=2 / keyint=250 / keyint_min=23 / scenecut=40 / intra_refresh=0 / rc=2pass / mbtree=0 / bitrate=510 / ratetol=1.0 / qcomp=0.60 / qpmin=0 / qpmax=69 / qpstep=4 / cplxblur=20.0 / qblur=0.5 / ip_ratio=1.40 / pb_ratio=1.30 / aq=0
Encoded date                     : UTC 2011-05-15 04:20:23
Tagged date                      : UTC 2011-05-15 04:21:15

Audio
ID                               : 2
Format                           : AAC
Format/Info                      : Advanced Audio Codec
Format profile                   : HE-AACv2 / HE-AAC / LC
Codec ID                         : 40
Duration                         : 2h 6mn
Bit rate mode                    : Variable
Bit rate                         : 39.9 Kbps
Maximum bit rate                 : 52.4 Kbps
Channel(s)                       : 2 channels / 1 channel / 1 channel
Channel positions                : Front: L R / Front: C / Front: C
Sampling rate                    : 48.0 KHz / 48.0 KHz / 24.0 KHz
Compression mode                 : Lossy
Stream size                      : 36.2 MiB (7%)
Language                         : English
Encoded date                     : UTC 2011-05-15 04:21:10
Tagged date                      : UTC 2011-05-15 04:21:15



Indiana Jones-IV-Kingdom Of The Crystal Skull [2008]-720p-BRrip-x264-StyLishSaLH

General
Complete name                    : Indiana Jones - IV - Kingdom Of The Crystal Skull\Indiana Jones-IV-Kingdom Of The Crystal Skull [2008]-720p-BRrip-x264-StyLishSaLH
Format                           : MPEG-4
Format profile                   : Base Media
Codec ID                         : isom
File size                        : 534 MiB
Duration                         : 2h 2mn
Overall bit rate                 : 610 Kbps
Movie name                       : Indiana Jones-IV-Kingdom Of The Crystal Skull [2008]-720p-BRrip-x264-StyLishSaLH
Genre                            : Adventure
Encoded date                     : UTC 2011-05-21 00:15:27
Tagged date                      : UTC 2011-05-21 00:15:27
Copyright                        : StyLishSaLH
Comment                          :Puretorrents.cc, Deemtrack.in, Sceneunderground.org,Northernwarriors.net, Silvertorrents.me & Kickasstorrents.com

Video
ID                               : 1
Format                           : AVC
Format/Info                      : Advanced Video Codec
Format profile                   : Main@L4.1
Format settings, CABAC           : Yes
Format settings, ReFrames        : 10 frames
Codec ID                         : avc1
Codec ID/Info                    : Advanced Video Coding
Duration                         : 2h 2mn
Bit rate                         : 570 Kbps
Maximum bit rate                 : 1 808 Kbps
Width                            : 1 280 pixels
Height                           : 528 pixels
Display aspect ratio             : 2.40:1
Frame rate mode                  : Constant
Frame rate                       : 23.976 fps
Color space                      : YUV
Chroma subsampling               : 4:2:0
Bit depth                        : 8 bits
Scan type                        : Progressive
Bits/(Pixel*Frame)               : 0.035
Stream size                      : 497 MiB (93%)
Writing library                  : x264 core 114 r1913 5fd3dce
Encoding settings                : cabac=1 / ref=10 / deblock=1:-1:-1 / analyse=0x1:0x111 / me=umh / subme=9 / psy=0 / mixed_ref=1 / me_range=16 / chroma_me=1 / trellis=2 / 8x8dct=0 / cqm=0 / deadzone=21,11 / fast_pskip=1 / chroma_qp_offset=0 / threads=2 / sliced_threads=0 / nr=0 / decimate=1 / interlaced=0 / constrained_intra=0 / bframes=3 / b_pyramid=0 / b_adapt=2 / b_bias=0 / direct=3 / weightb=1 / open_gop=0 / weightp=2 / keyint=250 / keyint_min=23 / scenecut=40 / intra_refresh=0 / rc=2pass / mbtree=0 / bitrate=570 / ratetol=1.0 / qcomp=0.60 / qpmin=0 / qpmax=69 / qpstep=4 / cplxblur=20.0 / qblur=0.5 / ip_ratio=1.40 / pb_ratio=1.30 / aq=0
Encoded date                     : UTC 2011-05-21 00:15:27
Tagged date                      : UTC 2011-05-21 00:18:55

Audio
ID                               : 2
Format                           : AAC
Format/Info                      : Advanced Audio Codec
Format profile                   : HE-AACv2 / HE-AAC / LC
Codec ID                         : 40
Duration                         : 2h 2mn
Bit rate mode                    : Variable
Bit rate                         : 39.9 Kbps
Maximum bit rate                 : 49.5 Kbps
Channel(s)                       : 2 channels / 1 channel / 1 channel
Channel positions                : Front: L R / Front: C / Front: C
Sampling rate                    : 48.0 KHz / 48.0 KHz / 24.0 KHz
Compression mode                 : Lossy
Stream size                      : 35.0 MiB (7%)
Language                         : English
Encoded date                     : UTC 2011-05-21 00:17:41
Tagged date                      : UTC 2011-05-21 00:18:55
